<svg width="120" height="120" viewBox="0 0 31.75 31.75" xmlns="http://www.w3.org/2000/svg"><g style="display:inline"><path style="fill:red;fill-opacity:0;fill-rule:evenodd;stroke-width:.264583" d="M23.16 15.82a6.98 6.98 0 0 1-6.99 6.98 6.98 6.98 0 0 1-6.98-6.98 6.98 6.98 0 0 1 6.98-6.99 6.98 6.98 0 0 1 6.99 6.99Z" fill="none"/><g aria-label="pizza - pizza - pizza - pizza -" style="font-size:2.97888px;line-height:1.25;-inkscape-font-specification:'sans-serif, Normal';fill:#eee;stroke-width:.264583"><path d="M29.26 19.04q-.33-.05-.6-.18-.27-.13-.44-.34-.16-.19-.24-.42-.07-.24-.03-.49.03-.22.1-.39.07-.16.2-.33l-1.18-.16.07-.47 3.8.51-.05.47-.3-.04q.14.2.21.45.08.25.04.52-.07.5-.48.73-.42.23-1.1.14zm.06-.49q.5.07.77-.07t.32-.5q.03-.2-.03-.41-.06-.22-.18-.42l-1.58-.21-.17.32q-.05.14-.07.33-.05.39.18.64.24.26.76.32zM30.52 21.07l.17-.5.46.16-.17.5zM27.42 20l.15-.45 2.66.9-.15.45zM26.13 22.67l1.07-2 .31.18 1.04 2.42.76-1.41.35.19-1.04 1.92-.3-.16-1.04-2.43-.8 1.48zM24.37 24.75l1.5-1.71.26.23.47 2.6 1.06-1.21.3.26-1.45 1.64-.25-.22-.47-2.6L24.67 25zM22.08 26.45l.38-.27.17.24.07-.2.1-.21q.07-.12.17-.24t.27-.24q.31-.21.67-.16.36.05.59.37.18.26.18.5t-.14.48q-.14.24-.41.48l-.6.5.04.06q.1.13.2.18.1.05.23.04.11 0 .24-.07l.25-.15q.15-.11.31-.28.16-.17.3-.4h.03l.28.39-.28.3q-.2.18-.4.33-.24.17-.45.25-.2.1-.4.09-.2 0-.38-.1-.17-.11-.33-.33zm.78.3.45.63.4-.32q.22-.19.33-.33.13-.16.17-.33.03-.18-.1-.35-.13-.2-.32-.22-.19-.01-.44.16-.2.15-.31.34-.12.2-.18.41zM18.44 29.22l1.53-.36.1.44-1.52.37zM12.8 29.11q.05-.33.19-.6.13-.27.34-.44.19-.16.43-.23.23-.06.48-.03.22.03.39.1.17.08.33.2l.17-1.16.47.07-.55 3.8-.47-.07.05-.29q-.21.13-.46.2-.25.08-.51.04-.5-.07-.73-.5-.23-.41-.13-1.09zm.48.06q-.07.5.07.78.13.27.5.32.2.03.4-.03.23-.05.43-.17l.23-1.58q-.19-.11-.33-.17-.13-.05-.32-.08-.39-.05-.64.18-.26.23-.34.75zM10.75 30.35l.5.17-.16.46-.5-.17zm1.1-3.1.45.16-.92 2.66-.45-.16zM9.2 25.94l1.98 1.1-.17.3-2.43 1.02 1.4.77-.2.35-1.9-1.06.16-.3 2.44-1.01L9 26.29zM7.14 24.17l1.7 1.5-.24.27-2.6.45 1.2 1.06-.26.3-1.64-1.46.23-.25 2.6-.45-1.25-1.13zM5.47 21.85l.26.39-.24.17.2.07.2.1q.12.07.24.17t.24.28q.21.3.16.67-.06.36-.38.58-.27.18-.5.18-.25 0-.48-.15-.24-.14-.48-.42-.24-.27-.49-.6l-.06.04q-.13.1-.18.2-.06.1-.05.23 0 .11.07.24l.15.25q.1.16.28.32.17.16.38.3l.02.03-.4.27-.3-.28q-.18-.2-.32-.4-.17-.25-.25-.45-.09-.21-.08-.41 0-.2.1-.37.11-.17.33-.33zm-.3.78-.65.44q.13.18.32.4.18.23.32.34.16.14.34.17.17.04.34-.08.2-.14.22-.33.02-.19-.15-.44-.14-.2-.34-.32-.2-.11-.4-.18zM2.73 18.2l.35 1.52-.44.1-.36-1.53zM2.9 12.55q.33.05.6.2.26.13.43.34.16.19.22.43.07.23.03.48-.03.22-.1.39-.08.17-.2.33l1.16.18-.08.47-3.8-.59.07-.46.3.04q-.13-.2-.2-.46-.07-.25-.03-.51.08-.5.5-.72.42-.22 1.1-.12zm-.07.48q-.5-.07-.78.06-.27.13-.33.49-.03.2.03.42.06.21.17.42l1.57.24q.12-.18.18-.32.05-.14.08-.32.06-.39-.17-.65t-.75-.34ZM1.68 10.49l-.18.5-.46-.17.18-.5zm3.08 1.13-.16.45-2.64-.95.16-.44zM6.1 8.98 5 10.95l-.3-.17-1-2.44-.79 1.39-.34-.2 1.08-1.9.3.17.99 2.45.83-1.47zM7.9 6.94 6.37 8.62l-.26-.24-.42-2.6-1.08 1.19-.29-.27L5.8 5.08l.25.23.42 2.61L7.6 6.67zM10.23 5.29l-.39.26-.17-.25-.07.2-.1.21q-.07.12-.18.23-.1.12-.27.24-.32.21-.68.15-.36-.06-.57-.39-.18-.26-.18-.5t.15-.48q.15-.23.43-.47.27-.23.6-.48l-.04-.06q-.09-.13-.2-.19-.1-.06-.22-.05-.12.01-.24.07l-.26.15q-.15.1-.31.27-.17.17-.32.38l-.02.02-.27-.4.29-.3q.19-.18.4-.32.25-.16.46-.24.2-.09.4-.08.2 0 .37.12.17.1.33.33zm-.78-.31-.43-.65-.4.31q-.23.19-.35.32-.13.16-.17.34-.04.17.08.34.14.2.33.23.18.01.43-.15.21-.14.33-.34.11-.2.18-.4zM13.92 2.59l-1.53.33-.1-.44 1.53-.34zM19.56 2.81q-.06.34-.2.6-.14.26-.35.43-.2.16-.43.22-.24.06-.49.02-.21-.03-.38-.1-.17-.08-.33-.21l-.2 1.16-.46-.08.62-3.8.47.08-.05.3q.21-.13.46-.2t.51-.02q.5.08.72.5.22.43.11 1.1zm-.48-.07q.08-.5-.05-.77-.13-.28-.49-.34-.2-.03-.42.02-.21.06-.42.17l-.26 1.57q.18.12.32.18.14.05.32.08.39.06.65-.16.26-.23.35-.75zM21.63 1.62l-.5-.18.17-.46.5.18zM20.46 4.7l-.44-.17L21 1.9l.44.16zM23.1 6.06l-1.96-1.14.17-.3 2.45-.96-1.38-.8.2-.35 1.9 1.1-.18.3-2.46.96 1.46.84zM25.11 7.87l-1.66-1.54.24-.26 2.6-.4-1.17-1.08.27-.3L27 5.8l-.22.25-2.62.4 1.24 1.14zM26.74 10.22l-.25-.4.25-.16-.2-.07-.21-.1q-.12-.08-.23-.18-.12-.1-.23-.28-.21-.32-.15-.68.07-.36.4-.57.26-.18.5-.17.24 0 .48.16.23.15.46.43l.48.6.06-.03q.13-.09.19-.2.06-.1.05-.22 0-.12-.07-.25l-.14-.25q-.1-.16-.27-.32-.17-.17-.38-.32l-.02-.02.4-.26.3.28q.18.2.32.41.16.25.24.46.08.2.07.4-.01.2-.12.37-.1.17-.33.32zm.32-.77.66-.43-.31-.4q-.19-.24-.32-.35-.16-.14-.33-.18-.17-.04-.35.08-.2.13-.23.32-.02.19.15.44.14.2.33.33.2.12.4.19zM29.4 13.94l-.31-1.54.44-.1.32 1.55z"/></g></g></svg>